<svg width="24" height="24" viewBox="0 0 250 250" fill="none" xmlns="http://www.w3.org/2000/svg">
<path d="M125 20.8335C67.5002 20.8335 20.8335 67.5002 20.8335 125C20.8335 182.5 67.5002 229.167 125 229.167C182.5 229.167 229.167 182.5 229.167 125C229.167 67.5002 182.5 20.8335 125 20.8335ZM125 208.333C79.0627 208.333 41.6668 170.938 41.6668 125C41.6668 79.0627 79.0627 41.6668 125 41.6668C170.938 41.6668 208.333 79.0627 208.333 125C208.333 170.938 170.938 208.333 125 208.333ZM172.813 78.9585L104.167 147.604L77.1877 120.729L62.5002 135.417L104.167 177.083L187.5 93.7502L172.813 78.9585Z" fill="#6B7280"/>
</svg>
