<svg width="24" height="24" viewBox="0 0 250 250" fill="none" xmlns="http://www.w3.org/2000/svg">
<path d="M163.854 31.25H86.1458L31.25 86.1458V163.854L86.1458 218.75H163.854L218.75 163.854V86.1458L163.854 31.25ZM197.917 155.208L155.208 197.917H94.7917L52.0833 155.208V94.7917L94.7917 52.0833H155.208L197.917 94.7917V155.208Z" fill="#6B7280"/>
<path d="M125 177.083C130.753 177.083 135.417 172.42 135.417 166.667C135.417 160.914 130.753 156.25 125 156.25C119.247 156.25 114.583 160.914 114.583 166.667C114.583 172.42 119.247 177.083 125 177.083Z" fill="#6B7280"/>
<path d="M114.583 72.9167H135.417V145.833H114.583V72.9167Z" fill="#6B7280"/>
</svg>
