<svg width="24" height="24" viewBox="0 0 250 250" fill="none" xmlns="http://www.w3.org/2000/svg">
<path d="M145.833 20.8334H62.5C51.0417 20.8334 41.6667 30.2084 41.6667 41.6667V208.333C41.6667 219.792 51.0417 229.167 62.5 229.167H187.5C198.958 229.167 208.333 219.792 208.333 208.333V83.3334L145.833 20.8334ZM187.5 208.333H62.5V41.6667H145.833V83.3334H187.5V208.333ZM125 177.083C113.542 177.083 104.167 167.708 104.167 156.25V98.9584C104.167 96.0417 106.458 93.75 109.375 93.75C112.292 93.75 114.583 96.0417 114.583 98.9584V156.25H135.417V98.9584C135.417 84.5834 123.75 72.9167 109.375 72.9167C95 72.9167 83.3334 84.5834 83.3334 98.9584V156.25C83.3334 179.271 101.979 197.917 125 197.917C148.021 197.917 166.667 179.271 166.667 156.25V114.583H145.833V156.25C145.833 167.708 136.458 177.083 125 177.083Z" fill="#6B7280"/>
</svg>
