<svg width="24" height="24" viewBox="0 0 250 250" fill="none" xmlns="http://www.w3.org/2000/svg">
<path d="M114.583 187.5H135.417V166.667H114.583V187.5ZM125 20.8335C67.5002 20.8335 20.8335 67.5002 20.8335 125C20.8335 182.5 67.5002 229.167 125 229.167C182.5 229.167 229.167 182.5 229.167 125C229.167 67.5002 182.5 20.8335 125 20.8335ZM125 208.333C79.0627 208.333 41.6668 170.938 41.6668 125C41.6668 79.0627 79.0627 41.6668 125 41.6668C170.938 41.6668 208.333 79.0627 208.333 125C208.333 170.938 170.938 208.333 125 208.333ZM125 62.5002C101.979 62.5002 83.3335 81.146 83.3335 104.167H104.167C104.167 92.7085 113.542 83.3335 125 83.3335C136.458 83.3335 145.833 92.7085 145.833 104.167C145.833 125 114.583 122.396 114.583 156.25H135.417C135.417 132.813 166.667 130.208 166.667 104.167C166.667 81.146 148.021 62.5002 125 62.5002Z" fill="#6B7280"/>
</svg>
