<svg width="24" height="24" viewBox="0 0 250 250" fill="none" xmlns="http://www.w3.org/2000/svg">
<path d="M197.917 31.25H52.0833C40.625 31.25 31.25 40.625 31.25 52.0833V197.917C31.25 209.375 40.625 218.75 52.0833 218.75H197.917C209.375 218.75 218.75 209.375 218.75 197.917V52.0833C218.75 40.625 209.375 31.25 197.917 31.25ZM197.917 197.917H52.0833V150.208L62.3958 160.521L104.062 118.854L145.729 160.521L187.396 118.958L197.917 129.479V197.917ZM197.917 99.8958L187.396 89.375L145.729 131.146L104.062 89.4792L62.3958 131.146L52.0833 120.729V52.0833H197.917V99.8958Z" fill="#6B7280"/>
</svg>
