<svg width="24" height="24" viewBox="0 0 250 250" fill="none" xmlns="http://www.w3.org/2000/svg">
<path d="M114.583 72.9173H135.417V93.7506H114.583V72.9173ZM114.583 114.584H135.417V177.084H114.583V114.584ZM125 20.834C67.5002 20.834 20.8335 67.5006 20.8335 125.001C20.8335 182.501 67.5002 229.167 125 229.167C182.5 229.167 229.167 182.501 229.167 125.001C229.167 67.5006 182.5 20.834 125 20.834ZM125 208.334C79.0627 208.334 41.6668 170.938 41.6668 125.001C41.6668 79.0631 79.0627 41.6673 125 41.6673C170.938 41.6673 208.333 79.0631 208.333 125.001C208.333 170.938 170.938 208.334 125 208.334Z" fill="#6B7280"/>
</svg>
