<svg width="24" height="24" viewBox="0 0 250 250" fill="none" xmlns="http://www.w3.org/2000/svg">
<path d="M124.896 20.8333C67.3958 20.8333 20.8333 67.4999 20.8333 125C20.8333 182.5 67.3958 229.167 124.896 229.167C182.5 229.167 229.167 182.5 229.167 125C229.167 67.4999 182.5 20.8333 124.896 20.8333ZM197.083 83.3332H166.354C163.021 70.3124 158.229 57.8124 151.979 46.2499C171.146 52.8124 187.083 66.1457 197.083 83.3332ZM125 42.0833C133.646 54.5832 140.417 68.4374 144.896 83.3332H105.104C109.583 68.4374 116.354 54.5832 125 42.0833ZM44.375 145.833C42.7083 139.167 41.6666 132.187 41.6666 125C41.6666 117.812 42.7083 110.833 44.375 104.167H79.5833C78.75 111.042 78.125 117.917 78.125 125C78.125 132.083 78.75 138.958 79.5833 145.833H44.375ZM52.9166 166.667H83.6458C86.9791 179.687 91.7708 192.187 98.0208 203.75C78.8541 197.187 62.9166 183.958 52.9166 166.667ZM83.6458 83.3332H52.9166C62.9166 66.0416 78.8541 52.8124 98.0208 46.2499C91.7708 57.8124 86.9791 70.3124 83.6458 83.3332ZM125 207.917C116.354 195.417 109.583 181.562 105.104 166.667H144.896C140.417 181.562 133.646 195.417 125 207.917ZM149.375 145.833H100.625C99.6875 138.958 98.9583 132.083 98.9583 125C98.9583 117.917 99.6875 110.937 100.625 104.167H149.375C150.312 110.937 151.042 117.917 151.042 125C151.042 132.083 150.312 138.958 149.375 145.833ZM151.979 203.75C158.229 192.187 163.021 179.687 166.354 166.667H197.083C187.083 183.854 171.146 197.187 151.979 203.75ZM170.417 145.833C171.25 138.958 171.875 132.083 171.875 125C171.875 117.917 171.25 111.042 170.417 104.167H205.625C207.292 110.833 208.333 117.812 208.333 125C208.333 132.187 207.292 139.167 205.625 145.833H170.417Z" fill="#6B7280"/>
</svg>
