<svg width="24" height="24" viewBox="0 0 250 250" fill="none" xmlns="http://www.w3.org/2000/svg">
<path d="M177.083 72.9165H135.417V93.7498H177.083C194.271 93.7498 208.333 107.812 208.333 125C208.333 142.187 194.271 156.25 177.083 156.25H135.417V177.083H177.083C205.833 177.083 229.167 153.75 229.167 125C229.167 96.2498 205.833 72.9165 177.083 72.9165ZM114.583 156.25H72.9168C55.7293 156.25 41.6668 142.187 41.6668 125C41.6668 107.812 55.7293 93.7498 72.9168 93.7498H114.583V72.9165H72.9168C44.1668 72.9165 20.8335 96.2498 20.8335 125C20.8335 153.75 44.1668 177.083 72.9168 177.083H114.583V156.25ZM83.3335 114.583H166.667V135.417H83.3335V114.583Z" fill="#6B7280"/>
</svg>
