<svg width="24" height="24" viewBox="0 0 250 250" fill="none" xmlns="http://www.w3.org/2000/svg">
<path d="M125 20.8333C84.6875 20.8333 52.0833 53.4374 52.0833 93.7499C52.0833 148.437 125 229.167 125 229.167C125 229.167 197.917 148.437 197.917 93.7499C197.917 53.4374 165.312 20.8333 125 20.8333ZM72.9166 93.7499C72.9166 64.9999 96.25 41.6666 125 41.6666C153.75 41.6666 177.083 64.9999 177.083 93.7499C177.083 123.75 147.083 168.646 125 196.667C103.333 168.854 72.9166 123.437 72.9166 93.7499Z" fill="#6B7280"/>
<path d="M125 119.792C139.382 119.792 151.042 108.132 151.042 93.7499C151.042 79.3675 139.382 67.7082 125 67.7082C110.618 67.7082 98.9583 79.3675 98.9583 93.7499C98.9583 108.132 110.618 119.792 125 119.792Z" fill="#6B7280"/>
</svg>
