<svg width="24" height="24" viewBox="0 0 250 250" fill="none" xmlns="http://www.w3.org/2000/svg">
<path d="M164.115 148.49H155.885L152.969 145.677C163.177 133.802 169.323 118.385 169.323 101.615C169.323 64.2188 139.01 33.9062 101.615 33.9062C64.2188 33.9062 33.9062 64.2188 33.9062 101.615C33.9062 139.01 64.2188 169.323 101.615 169.323C118.385 169.323 133.802 163.177 145.677 152.969L148.49 155.885V164.115L200.573 216.094L216.094 200.573L164.115 148.49ZM101.615 148.49C75.6771 148.49 54.7396 127.552 54.7396 101.615C54.7396 75.6771 75.6771 54.7396 101.615 54.7396C127.552 54.7396 148.49 75.6771 148.49 101.615C148.49 127.552 127.552 148.49 101.615 148.49Z" fill="#6B7280"/>
</svg>
